<svg xmlns="http://www.w3.org/2000/svg" viewBox="0 0 526 396"><defs><style>.cls-1{fill:#cdeeff;fill-rule:evenodd;}</style></defs><g id="Layer_5" data-name="Layer 5"><path class="cls-1" d="M161.13,55c-20.84,0-36.26,18.24-35.57,38,.66,19-.2,43.62-6.4,63.69s-16.72,32.88-33.89,34.52v18.48c17.17,1.64,27.68,14.39,33.89,34.52s7.06,44.68,6.4,63.69c-.69,19.78,14.73,38,35.57,38H374.66c20.84,0,36.26-18.24,35.57-38-.67-19,.2-43.62,6.39-63.69s16.7-32.88,33.87-34.52V191.23c-17.17-1.64-27.65-14.39-33.87-34.52S409.56,112,410.23,93c.69-19.78-14.73-38-35.57-38H161.13ZM332.88,234.09c0,27.24-20.32,43.76-54,43.76h-57.4a6.19,6.19,0,0,1-6.19-6.19h0V129.28a6.19,6.19,0,0,1,6.19-6.19h57.07c28.11,0,46.56,15.23,46.56,38.61,0,16.41-12.41,31.1-28.22,33.67v.86c21.52,2.36,36,17.27,36,37.86Zm-60.29-91.37H239.86v46.22h27.57c21.3,0,33.05-8.58,33.05-23.92,0-14.37-10.1-22.3-27.89-22.3Zm-32.73,64.56v50.94h33.93c22.19,0,33.94-8.9,33.94-25.63s-12.08-25.31-35.36-25.31Z"/></g></svg>