<svg xmlns="http://www.w3.org/2000/svg" viewBox="0 0 526 396"><defs><style>.cls-1{fill:#cdeeff;}</style></defs><g id="css"><path class="cls-1" d="M281.18,13V27.32H258.13v3h22.92V63.38H241.54v-15H264.4V45.64h-23V13Z"/><path class="cls-1" d="M329,13V27.32H305.84v3h22.92V63.39H289.31v-15H312V45.57H289.22V13Z"/><path class="cls-1" d="M233.4,13V29.47H210.31v4.15c0,3.5.08,7,0,10.48-.05,1.68.5,2.17,2.15,2.15,6.1-.09,12.2,0,18.29,0h2.58V62.72H193.66V13Z"/><path class="cls-1" d="M131.7,85.79l24,268,107.24,29.94L370.7,353.79l23.48-268ZM330.1,307.48l-67.6,19.23-67.4-18.23-4-52h33l2,26,36.4,9.9,36.6-9.9,4-43h-114l-3-33h120l3-33h-126l-3-33H344.91Z"/></g></svg>