<svg id="Layer_1" data-name="Layer 1" xmlns="http://www.w3.org/2000/svg" viewBox="0 0 640 480"><defs><style>.cls-1{fill:#4588a5;}</style></defs><path class="cls-1" d="M504.28,118.29A38.91,38.91,0,0,0,466.15,88q-73-.09-145.92,0-73.11,0-146.22,0c-22.22,0-39.28,17.26-39.28,39.41q0,106.89,0,213.78a38.91,38.91,0,0,0,38.93,39.17q146.38.07,292.76,0a38.89,38.89,0,0,0,38.81-39q.06-107.34,0-214.69A36.8,36.8,0,0,0,504.28,118.29Zm-313.59,8.88H446.31c-13,12.31-25.67,24.31-38.34,36.29q-45,42.57-90,85.17c-2,1.87-2.93,1.84-4.86-.06Q252.8,188.89,192.38,129.36a14.85,14.85,0,0,0-2.21-1.51ZM463.39,341.5q-143.36-.11-286.71,0c-1.84,0-3,.18-3-2.56q.16-85.27.08-170.57v-2l1.05-.77c6.84,7.15,13.53,14.45,20.56,21.42q46.6,46.23,93.37,92.29c7.68,7.57,16.47,12.75,27.77,12.34,10.15-.38,18.16-5.26,25.25-11.94q31.49-29.66,62.85-59.43,30.09-28.45,60.22-56.88c.33-.32.68-.62,1.44-1.32v3.15q0,86.66.05,173.31C466.3,340.77,465.87,341.51,463.39,341.5Z"/></svg>