<svg id="Layer_1" data-name="Layer 1" xmlns="http://www.w3.org/2000/svg" viewBox="0 0 800 435"><defs><style>.cls-1{fill:#231f20;}</style></defs><title>Full_Branding_BLACK</title><path class="cls-1" d="M385.7,52.18h0l15.81,9.12a80.54,80.54,0,0,1,58,0l15.8-9.12h0L495.8,40.35a116.25,116.25,0,0,0-130.59,0Z"/><path class="cls-1" d="M546.85,132.07a117.41,117.41,0,0,0-2.74-20.87l-25.87,14.93-7.18,4.15c.16,2.13.28,4.28.28,6.46a80.84,80.84,0,0,1-161.67,0c0-2.18.11-4.33.29-6.46l-7.19-4.15L316.9,111.2a115.59,115.59,0,0,0-2.73,20.87v9.33a116.43,116.43,0,0,0,232.68,0Z"/><polygon class="cls-1" points="266.16 272.62 288.57 259.68 288.57 177.12 288.57 65.93 288.78 66.07 288.78 66.03 332.36 91.18 363.24 109.01 370.44 113.17 383.52 105.62 383.52 105.62 406.07 92.6 386.77 81.45 354.1 62.59 253.16 4.31 253.16 280.13 266.16 272.62"/><path class="cls-1" d="M209.29,429.69a1,1,0,0,1-.95-.67l-5.17-13.83L198,429a1,1,0,0,1-1,.67,1,1,0,0,1-.92-.73l-6.15-20.37a1,1,0,0,1,.7-1.26,1,1,0,0,1,1.23.66l5.3,17.51L202.22,412a1,1,0,0,1,.95-.64,1,1,0,0,1,1,.64l5.07,13.54L214.46,408a1,1,0,0,1,1.27-.66,1,1,0,0,1,.66,1.26L210.27,429a1,1,0,0,1-1,.73Z"/><path class="cls-1" d="M247.91,428.67a1,1,0,0,1-1,1H233.6a1,1,0,0,1-1-1V408.31a1,1,0,0,1,1-1h13.29a1,1,0,0,1,1,1,1,1,0,0,1-1,1H234.61V417h8.85a1,1,0,0,1,1,1,1,1,0,0,1-1,1h-8.85v8.66h12.28A1,1,0,0,1,247.91,428.67Z"/><path class="cls-1" d="M280.91,423.34a6.36,6.36,0,0,1-6.34,6.35h-9.49a1,1,0,0,1-1-1V408.31a1,1,0,0,1,1-1h8.5a5.86,5.86,0,0,1,3.78,10.34A6.41,6.41,0,0,1,280.91,423.34Zm-7.33-14H266.1V417h7.48a3.86,3.86,0,0,0,0-7.71Zm5.3,14a4.34,4.34,0,0,0-4.31-4.34H266.1v8.66h8.47A4.32,4.32,0,0,0,278.88,423.34Z"/><path class="cls-1" d="M329,429.69h-5.14a1,1,0,0,1-1-1V408.31a1,1,0,0,1,1-1H329a11.2,11.2,0,0,1,0,22.4Zm-4.13-2H329a9.19,9.19,0,1,0,0-18.37H324.9Z"/><path class="cls-1" d="M371.71,428.67a1,1,0,0,1-1,1H357.4a1,1,0,0,1-1-1V408.31a1,1,0,0,1,1-1h13.29a1,1,0,0,1,1,1,1,1,0,0,1-1,1H358.41V417h8.85a1,1,0,0,1,1,1,1,1,0,0,1-1,1h-8.85v8.66h12.28A1,1,0,0,1,371.71,428.67Z"/><path class="cls-1" d="M396.4,429.69a1,1,0,0,1-.95-.67l-7.52-20.36a1,1,0,0,1,.57-1.3,1,1,0,0,1,1.3.57l6.6,17.82,6.6-17.82a1,1,0,0,1,1.3-.57,1,1,0,0,1,.6,1.3L397.35,429A1,1,0,0,1,396.4,429.69Z"/><path class="cls-1" d="M436.45,428.67a1,1,0,0,1-1,1H422.14a1,1,0,0,1-1-1V408.31a1,1,0,0,1,1-1h13.29a1,1,0,0,1,1,1,1,1,0,0,1-1,1H423.16V417H432a1,1,0,0,1,1,1,1,1,0,0,1-1,1h-8.85v8.66h12.27A1,1,0,0,1,436.45,428.67Z"/><path class="cls-1" d="M464.76,429.69H453.62a1,1,0,0,1-1-1V408.31a1,1,0,0,1,1-1,1,1,0,0,1,1,1v19.35h10.12a1,1,0,0,1,1,1A1,1,0,0,1,464.76,429.69Z"/><path class="cls-1" d="M489.65,429.69a11.2,11.2,0,1,1,11.19-11.2A11.2,11.2,0,0,1,489.65,429.69Zm0-20.4a9.19,9.19,0,1,0,9.16,9.2A9.18,9.18,0,0,0,489.65,409.29Z"/><path class="cls-1" d="M532.61,415.13a7.8,7.8,0,0,1-7.8,7.8H519v5.74a1,1,0,1,1-2,0V408.31a1,1,0,0,1,1-1h6.79A7.81,7.81,0,0,1,532.61,415.13Zm-2,0a5.85,5.85,0,0,0-5.8-5.84H519v11.64h5.78A5.84,5.84,0,0,0,530.61,415.13Z"/><path class="cls-1" d="M564.09,428.67a1,1,0,0,1-1,1H549.79a1,1,0,0,1-1-1V408.31a1,1,0,0,1,1-1h13.29a1,1,0,0,1,1,1,1,1,0,0,1-1,1H550.8V417h8.85a1,1,0,0,1,1,1,1,1,0,0,1-1,1H550.8v8.66h12.28A1,1,0,0,1,564.09,428.67Z"/><path class="cls-1" d="M595.29,428a1,1,0,0,1,0,1.43,1,1,0,0,1-.7.29.94.94,0,0,1-.73-.32l-6.21-6.44h-5.33v5.74a1,1,0,1,1-2,0V408.31a1,1,0,0,1,1-1h6.79a7.82,7.82,0,0,1,2.1,15.35Zm-13-7h5.77a5.82,5.82,0,0,0,0-11.64h-5.77Z"/><path class="cls-1" d="M35.09,356.19l12.26,18.13H37.67L26.48,357.71h-13v16.61H5V317.19H27.16a20.34,20.34,0,0,1,7.93,39Zm-8-5.48c6.47,0,11.8-5.49,11.8-13.26s-5.33-13.25-11.8-13.25H13.45v26.51Z"/><path class="cls-1" d="M112.84,345.75a29,29,0,1,1-29-28.94A28.61,28.61,0,0,1,112.84,345.75Zm-49.58,0c0,11.66,8.53,21.94,20.56,21.94s20.57-10.28,20.57-21.94-8.53-21.93-20.57-21.93S63.26,334.18,63.26,345.75Z"/><path class="cls-1" d="M143.29,374.32H121.05V317.19h22.24c15.16.08,26.66,12.87,26.66,28.56S158.45,374.24,143.29,374.32Zm18.21-28.57c0-14.16-10.28-21.55-19.88-21.55H129.51v43.11h12.11C151.22,367.31,161.5,360,161.5,345.75Z"/><path class="cls-1" d="M209.78,356.19,222,374.32h-9.68l-11.19-16.61h-13v16.61h-8.45V317.19h22.16a20.34,20.34,0,0,1,7.93,39Zm-8-5.48c6.47,0,11.8-5.49,11.8-13.26s-5.33-13.25-11.8-13.25H188.14v26.51Z"/><path class="cls-1" d="M231,374.32V317.19h8.46v57.13Z"/><path class="cls-1" d="M349.21,374.32H339.3L318.66,346l-8.53,7.62v20.72h-8.45V317.19h8.45v25.75L338,317.19h11.2l-24.68,23.39Z"/><path class="cls-1" d="M510.12,345.75a29,29,0,1,1-29-28.94A28.61,28.61,0,0,1,510.12,345.75Zm-49.58,0c0,11.66,8.53,21.94,20.56,21.94s20.56-10.28,20.56-21.94-8.53-21.93-20.56-21.93S460.54,334.18,460.54,345.75Z"/><path class="cls-1" d="M555.58,374.32H518.33V317.19h8.46v50.12h28.79Z"/><path class="cls-1" d="M603.25,374.32H563.8V317.19h38v7H572.25v16.91h24.14v7.08H572.25v19.12h31Z"/><path class="cls-1" d="M678.72,374.32h-8.45V331.44l-22,42.88h-4.8l-22-42.88v42.88H613V317.19h11l21.86,44.18,21.86-44.18h11Z"/><path class="cls-1" d="M724.25,361.29H700.18l-5.1,13h-8.91l23.46-57.13h5.18l23.46,57.13h-8.92Zm-2.74-7-9.29-23.53-9.29,23.53Z"/><path class="cls-1" d="M784.79,374.32l-30.62-45.47v45.47h-8.45V317.19h10.13l30.7,45.47V317.19H795v57.13Z"/><path class="cls-1" d="M452.07,346c-.13,11.54-8.54,21.66-20.55,21.66S411,357.41,411,345.75s8.53-21.93,20.57-21.93a19.51,19.51,0,0,1,10.53,3l7.2-4.16a29.28,29.28,0,0,0-17.73-5.89,28.95,28.95,0,1,0,29,28.94,30.39,30.39,0,0,0-.36-4.41Z"/><path class="cls-1" d="M301.68,351.53c-2.14,2.88-10.67,16.16-24.21,16.16-12,0-20.56-10.28-20.56-21.94s8.53-21.93,20.56-21.93a19.49,19.49,0,0,1,10.53,3l7.21-4.16a29.31,29.31,0,0,0-17.74-5.89,28.95,28.95,0,1,0,0,57.89c17.66,0,27.49-14.79,32.66-21.1,1-1.17-.14-7.85,0-10.66Z"/></svg>