<svg id="Layer_1" data-name="Layer 1" xmlns="http://www.w3.org/2000/svg" viewBox="0 0 640 480"><defs><style>.cls-1{fill:#4588a5;}</style></defs><path class="cls-1" d="M354.59,332.6c3.33-.71,6.79-1.4,10.22-2.21,15.86-3.77,30.87-9.55,44.33-18.94,18.4-12.83,30.39-30,35-52.13a102.06,102.06,0,0,0,1.53-28.87,100.55,100.55,0,0,0-7.51-32,83.25,83.25,0,0,0-15.59-24.11c-.26-.28-.5-.58-.52-.6,6.74-16.87,7.17-33.43-.28-49.95a59.82,59.82,0,0,0-3.2-5.37,1.87,1.87,0,0,0-1.92-.94c-16.69.37-31.58,5.88-44.83,15.88-3.36,2.54-6.36,5.55-9.47,8.41a1.46,1.46,0,0,1-1.75.42c-10.5-3.65-21.4-5.21-32.42-6a180.22,180.22,0,0,0-29.57.24c-10.19.94-20.23,2.61-29.88,6.14a1.37,1.37,0,0,1-1.74-.4,77.4,77.4,0,0,0-41.93-23.37,109.82,109.82,0,0,0-12.45-1.26,2.37,2.37,0,0,0-1.74.89,43.26,43.26,0,0,0-7.76,19.73,59.87,59.87,0,0,0,2.26,28.49c.86,2.55,2.17,5,3.36,7.61-1.24,1.4-2.73,3-4.13,4.65a88.7,88.7,0,0,0-20,45.68c-2,14.13-1.55,28.12,2.51,41.87,5.42,18.36,16.31,32.81,31.72,44,12.56,9.09,26.58,15,41.51,18.87,4.92,1.28,9.9,2.34,14.8,3.49-.78,2.25-1.73,4.52-2.35,6.88a63.71,63.71,0,0,0-1.72,16.63,2.3,2.3,0,0,1-1.95,2.61,53.8,53.8,0,0,1-21.76,2.07,48.31,48.31,0,0,1-20.13-6.29,40.1,40.1,0,0,1-13.82-13.52c-5.75-9.2-13.67-15.55-24.34-18.17a20.18,20.18,0,0,0-10.38-.15,9.21,9.21,0,0,0-2,.79,2.3,2.3,0,0,0-1,3.45,14.84,14.84,0,0,0,2.22,2.86,13.43,13.43,0,0,0,2.43,2.08c8.68,5.65,14,14,18.45,23,2.09,4.26,3.64,8.77,6.57,12.63,8.72,11.52,20.31,18.26,34.42,20.81,10.24,1.85,20.43,1.09,30.56-1,.18,0,.37-.05.71-.09v24.81a16.59,16.59,0,0,1-5.94,13,11.31,11.31,0,0,1-11.93,2.39Q185.89,403.6,149.92,342a182.92,182.92,0,0,1-22.5-64.23A189.45,189.45,0,0,1,231.47,78.28a186,186,0,0,1,55.84-17.22,188.23,188.23,0,0,1,43.34-1.32c36.84,3.2,70.11,15.86,99.42,38.43q49.56,38.16,67.06,98.34A189.26,189.26,0,0,1,468,359.84a185.38,185.38,0,0,1-68,57.57c-7.45,3.72-15.31,6.62-23,9.84-6.8,2.84-12.24-.84-15.1-4.8A17.4,17.4,0,0,1,358.5,412q0-28.44,0-56.88c0-5.25-.09-10.52-1.45-15.64C356.43,337.15,355.43,334.94,354.59,332.6Z"/></svg>