<svg id="html" xmlns="http://www.w3.org/2000/svg" viewBox="0 0 526 396"><defs><style>.cls-1{fill:#cdeeff;}</style></defs><path class="cls-1" d="M321.84,13.13c.06.59.18,1.18.18,1.76q0,23,0,46c0,.65-.07,1.31-.12,2.09H305.48V39.3l-.56-.17-11.09,17.1L282.3,38.47V62.88H266.07c-.05-.57-.14-1.07-.14-1.58V14c0-.3.07-.59.1-.89h17.41c3.45,5.78,6.89,11.56,10.55,17.68l10.44-17.68Z"/><path class="cls-1" d="M205.3,13.13v49.8H188.65V50.43a15.44,15.44,0,0,0-.06-2.89c-.09-.47-.72-1.18-1.12-1.19-4.59-.08-9.19-.05-14.1-.05V63H156.63V13.13h16.52V29.47h15.63V13.13Z"/><path class="cls-1" d="M258.44,13.13V29.58H243.89V63H227.3V29.72H212.45V13.13Z"/><path class="cls-1" d="M346.85,13.13q.07,12.37.14,24.74c0,2.8,0,5.61,0,8.68h23.39V62.91H330.32V13.13Z"/><path class="cls-1" d="M131.7,85.63l24,268,107.24,29.95L370.7,353.63l23.48-268Zm211,88h-126l3,33H339.51l-8.81,101-67.76,19.23L195.7,308.63l-5-52h34l2,26,36.24,9.71,36.76-9.71,4-43h-114l-9-99H345.18Z"/></svg>