<svg id="Layer_1" data-name="Layer 1" xmlns="http://www.w3.org/2000/svg" viewBox="0 0 640 480"><defs><style>.cls-1{fill:#4588a5;}</style></defs><path class="cls-1" d="M410,424H230.21c-3.76-.6-7.57-1-11.28-1.83-41.72-9.38-68.48-34.62-79.92-75.84-1.49-5.38-2-11-3-16.52V150.06c.23-1.28.37-2.59.69-3.85,2.49-9.58,3.67-19.76,7.76-28.61,18.33-39.71,49.85-60.93,93.65-61.55,54.64-.76,109.3-.22,164-.16,21.18,0,40.81,5.72,58.07,18,29.27,20.86,43.95,49.59,44.05,85.51q.21,80.54-.05,161.06a97.44,97.44,0,0,1-1.87,20.7c-9.2,41.69-34.56,68.34-75.71,79.79C421.16,422.48,415.52,423,410,424ZM320.37,88.51q-40.08,0-80.16,0c-8.42,0-16.73.87-24.73,3.73-29.15,10.43-46.76,35.52-46.81,67.17-.09,53.67-.18,107.35.14,161a77.6,77.6,0,0,0,3.74,23.95c9.9,29.29,35.32,46.88,66.93,46.95,53.68.1,107.37.17,161-.14a77.59,77.59,0,0,0,24-3.71c29.21-9.82,46.91-35,47-66.5q.27-81,0-162.1c0-24.13-9.78-43.58-29.43-57.78-12.47-9-26.65-12.64-41.91-12.62Q360.28,88.57,320.37,88.51Z"/><path class="cls-1" d="M415,240.16c-.28,52.29-43.28,95-95.2,94.64-52.38-.39-95.08-43.4-94.58-95.27.51-52.3,43.08-94.63,95-94.47C372.45,145.23,415.27,188.19,415,240.16Zm-94.85-62.37A62.14,62.14,0,1,0,382.25,240,62.22,62.22,0,0,0,320.14,177.79Z"/><path class="cls-1" d="M419.14,165.21a23.86,23.86,0,1,1,23.79-23.86A24.1,24.1,0,0,1,419.14,165.21Z"/></svg>