<svg xmlns="http://www.w3.org/2000/svg" viewBox="0 0 526 396"><defs><style>.cls-1{fill:#cdeeff;}</style></defs><g id="js"><polygon class="cls-1" points="241.7 13.38 241.7 48.9 221.15 48.9 221.15 62.06 253.28 62.06 253.28 13.38 241.7 13.38"/><polygon class="cls-1" points="260.25 13.38 303.22 13.38 303.7 25.39 271.86 25.39 271.86 32.26 303.7 32.26 303.7 62.06 260.25 62.06 260.7 49.38 291.7 49.38 291.7 43.38 260.25 42.71 260.25 13.38"/><path class="cls-1" d="M131.7,85.38l24,268,107.24,29.95L370.7,353.38l23.48-268Zm120,233L177.7,297V267.38l47,13.39V137.38h27Zm94-152-47-1v50l44-7-8,91-62.84,19V288.9l39.84-12.52,3-36-42.84,7.49V137.38h77Z"/></g></svg>