<svg id="Layer_1" data-name="Layer 1" xmlns="http://www.w3.org/2000/svg" viewBox="0 0 640 480"><defs><style>.cls-1{fill:#4588a5;}</style></defs><path class="cls-1" d="M337,217.36c0-2-.16-4.76,0-7.5.25-3.4-.85-4.73-4.5-4.64q-14.31.36-28.64,0c-3.76-.1-4.76,1.16-4.7,4.78.31,16.8.52,33.6.5,50.4s-.37,33.6-.52,50.4c0,5.2,0,5.21,5.33,5.21h26.74c5.71,0,5.72,0,5.73-5.57,0-19.87,0-39.74.13-59.61.07-8.75,8.21-17.33,16.73-18.11,10.34-.95,17.35,4.36,19.28,14.72a44.17,44.17,0,0,1,.8,7.94c.08,18.72.14,37.45,0,56.17,0,3.52,1.1,4.6,4.6,4.52,9.42-.21,18.85-.25,28.27,0,3.86.11,5.06-1,5-4.92-.16-18.85,0-37.7-.12-56.55a99,99,0,0,0-1.44-16.68c-5.93-33-35.49-40.83-57.84-31.57C346.74,208.73,342.09,213.67,337,217.36Zm-56.56,43.29h0c0-17.07-.05-34.13.05-51.19,0-3.07-.89-4.28-4.13-4.23q-14.9.27-29.8,0c-3.24-.06-4.13,1.16-4.12,4.22q.1,51.2,0,102.39c0,3.46,1.29,4.3,4.51,4.24,9.67-.17,19.35-.22,29,0,3.66.09,4.53-1.28,4.51-4.64C280.41,294.52,280.47,277.59,280.47,260.65ZM261.6,191.39c.76,0,1.53.06,2.29,0,14-1.39,19.6-11.72,18.68-21.15-.76-7.78-4.76-13.63-12.46-16.24-8.22-2.79-16.1-2.11-23,3.58-6.16,5.12-8.14,13.87-5.25,21.55S252.39,191.46,261.6,191.39Z"/><path class="cls-1" d="M337,217.36c5.06-3.69,9.71-8.63,15.44-11,22.35-9.26,51.91-1.46,57.84,31.57a99,99,0,0,1,1.44,16.68c.16,18.85,0,37.7.12,56.55,0,3.88-1.17,5-5,4.92-9.42-.26-18.85-.22-28.27,0-3.5.08-4.62-1-4.6-4.52.12-18.72.06-37.45,0-56.17a44.17,44.17,0,0,0-.8-7.94c-1.93-10.36-8.94-15.67-19.28-14.72-8.52.78-16.66,9.36-16.73,18.11-.16,19.87-.1,39.74-.13,59.61,0,5.56,0,5.57-5.73,5.57H304.54c-5.31,0-5.38,0-5.33-5.21.15-16.8.5-33.6.52-50.4s-.19-33.6-.5-50.4c-.06-3.62.94-4.88,4.7-4.78q14.31.38,28.64,0c3.65-.09,4.75,1.24,4.5,4.64C336.87,212.6,337,215.36,337,217.36Z"/><path class="cls-1" d="M280.47,260.65c0,16.94-.06,33.87.06,50.81,0,3.36-.85,4.73-4.51,4.64-9.67-.24-19.35-.19-29,0-3.22.06-4.52-.78-4.51-4.24q.15-51.19,0-102.39c0-3.06.88-4.28,4.12-4.22q14.89.26,29.8,0c3.24,0,4.14,1.16,4.13,4.23-.1,17.06-.05,34.12-.05,51.19Z"/><path class="cls-1" d="M261.6,191.39c-9.21.07-16.86-4.72-19.7-12.27s-.91-16.43,5.25-21.55c6.86-5.69,14.74-6.37,23-3.58,7.7,2.61,11.7,8.46,12.46,16.24.92,9.43-4.72,19.76-18.68,21.15C263.13,191.45,262.36,191.39,261.6,191.39Z"/><path class="cls-1" d="M410.22,423.83H230.43c-3.76-.6-7.57-1-11.28-1.83-41.71-9.38-68.47-34.62-79.91-75.85-1.49-5.37-2-11-3-16.51V149.89c.23-1.28.37-2.59.7-3.85,2.49-9.58,3.67-19.76,7.75-28.61C163,77.72,194.53,56.5,238.32,55.88c54.64-.76,109.3-.22,164-.16,21.18,0,40.8,5.72,58.07,18,29.27,20.86,43.95,49.59,44,85.51q.21,80.54,0,161.06a98.09,98.09,0,0,1-1.87,20.7c-9.2,41.69-34.57,68.34-75.72,79.79C421.39,422.31,415.74,422.85,410.22,423.83ZM320.6,88.33q-40.08,0-80.17,0c-8.42,0-16.73.87-24.73,3.73-29.14,10.43-46.75,35.52-46.81,67.17-.09,53.67-.18,107.35.14,161a77.31,77.31,0,0,0,3.75,24c9.89,29.29,35.31,46.88,66.92,46.94,53.69.11,107.37.18,161.06-.13a77.69,77.69,0,0,0,24-3.71c29.21-9.82,46.9-35,47-66.5q.28-81,0-162.1c-.06-24.13-9.79-43.58-29.43-57.78-12.48-9-26.65-12.64-41.91-12.62Q360.5,88.4,320.6,88.33Z"/></svg>