<svg id="Layer_1" data-name="Layer 1" xmlns="http://www.w3.org/2000/svg" viewBox="0 0 800 800"><defs><style>.cls-1{fill:#231f20;}</style></defs><title>Logo_BLACK</title><path class="cls-1" d="M361.41,157.12h0l42.63,24.6a217.42,217.42,0,0,1,156.45,0l42.62-24.6h0l55.27-31.9a313.44,313.44,0,0,0-352.24,0Z"/><path class="cls-1" d="M796.11,372.62a314.34,314.34,0,0,0-7.38-56.3L718.94,356.6l-19.37,11.2c.45,5.75.77,11.55.77,17.41,0,120.24-97.84,218-218,218s-218-97.8-218-218c0-5.86.3-11.66.77-17.41l-19.38-11.2-69.79-40.28a313.44,313.44,0,0,0-7.38,56.3v25.17C175.1,565.2,313.28,699.35,482.29,699.35S789.47,565.2,796.11,397.79Z"/><polygon class="cls-1" points="38.97 751.76 99.41 716.86 99.41 494.14 99.41 194.21 99.99 194.58 99.99 194.47 217.53 262.32 300.83 310.42 320.26 321.64 355.55 301.28 355.56 301.28 416.38 266.16 364.31 236.07 276.19 185.2 3.89 28 3.89 772 38.97 751.76"/></svg>