<?xml version="1.0" encoding="utf-8"?>
<!-- Generator: Adobe Illustrator 24.0.0, SVG Export Plug-In . SVG Version: 6.00 Build 0)  -->
<svg version="1.1" id="Layer_1" xmlns="http://www.w3.org/2000/svg" xmlns:xlink="http://www.w3.org/1999/xlink" x="0px" y="0px"
	 viewBox="0 0 800 800" style="enable-background:new 0 0 800 800;" xml:space="preserve">
<style type="text/css">
	.st0{fill:#2E8A9C;}
	.st1{fill:#1C5575;}
</style>
<g>
	<g>
		<path class="st0" d="M361.41,157.12h0.02l42.63,24.6c24.31-9.36,50.66-14.56,78.23-14.56c27.56,0,53.93,5.2,78.22,14.56
			l42.63-24.6h0.01l55.27-31.9c-50.26-34.17-110.9-54.16-176.12-54.16c-65.23,0-125.86,19.99-176.12,54.16L361.41,157.12z"/>
		<path class="st0" d="M796.11,372.62c-0.77-19.26-3.3-38.08-7.39-56.3l-69.79,40.27l-19.37,11.2c0.44,5.75,0.76,11.55,0.76,17.41
			c0,120.24-97.83,218.04-218.05,218.04c-120.23,0-218.05-97.8-218.05-218.04c0-5.86,0.3-11.67,0.77-17.41l-19.38-11.2l-69.78-40.27
			c-4.09,18.22-6.62,37.04-7.38,56.3v25.16c6.64,167.41,144.82,301.56,313.83,301.56c168.99,0,307.18-134.15,313.82-301.56V372.62z"
			/>
	</g>
	<polygon class="st1" points="38.96,751.76 99.41,716.86 99.41,494.14 99.41,194.21 99.99,194.58 99.99,194.47 217.53,262.32 
		300.83,310.42 320.26,321.64 355.55,301.28 355.56,301.28 416.38,266.16 364.31,236.07 276.18,185.2 3.89,28 3.89,772 	"/>
</g>
</svg>
