<svg xmlns="http://www.w3.org/2000/svg" viewBox="0 0 526 396"><defs><style>.cls-1{fill:#cdeeff;}</style></defs><g id="Layer_5" data-name="Layer 5"><circle class="cls-1" cx="263.47" cy="195.95" r="33.68"/><path class="cls-1" d="M432.61,162.39C421,152.67,404.48,144,385,137.26c-3.91-1.35-8-2.62-12.12-3.82q1-4.2,1.86-8.26c4.43-21.47,5.36-41.24,2.69-57.18-2.86-17.12-9.78-29.29-20-35.19-9.84-5.68-23.24-5.67-38.75,0C304.38,38.08,288.62,48,273,61.56c-3.12,2.72-6.25,5.6-9.38,8.61q-3.14-3-6.26-5.77c-16.39-14.55-33-25.23-48.18-30.88C193,27.45,179,27.37,168.73,33.29,158.89,39,152.21,50.6,149.4,66.88c-2.57,15-1.84,33.57,2.13,53.83q1.2,6.14,2.78,12.49-7.25,2.06-14,4.39C121.15,144.28,105,153,93.66,162.66c-12.25,10.47-18.73,22-18.73,33.28,0,11.63,6.82,23.61,19.71,34.65C106.77,241,123.8,250.09,143.88,257q4.92,1.68,10.2,3.19-1.71,6.9-3,13.49c-3.79,20-4.35,38.3-1.61,53,3,15.84,9.7,27.2,19.49,32.85a35.55,35.55,0,0,0,18,4.41,66.24,66.24,0,0,0,21.87-4.18c15.06-5.31,31.47-15.51,47.45-29.48q3.92-3.44,7.88-7.26,5.1,4.91,10.18,9.28c15.41,13.27,31,22.9,45.09,27.85A62.4,62.4,0,0,0,340,364a34.73,34.73,0,0,0,17.62-4.36c10.06-5.83,17-17.72,20.11-34.41,2.92-15.7,2.28-35-1.84-55.83q-1-4.94-2.26-10.09c2.38-.71,4.72-1.44,7-2.2,20.81-6.88,38.39-15.95,50.86-26.22,13.41-11,20.49-23.11,20.49-34.93C452,184.58,445.29,173,432.61,162.39ZM324.18,48a47.6,47.6,0,0,1,16-3.3,18.29,18.29,0,0,1,9.17,2.1c5.85,3.37,10.17,11.86,12.19,23.9,2.34,14,1.44,31.72-2.59,51.26q-.75,3.69-1.68,7.48a384.67,384.67,0,0,0-50.42-8q-5.83-8.31-11.83-16-10-12.92-20-23.74,4.33-4.16,8.67-7.93C297.73,61.44,311.75,52.53,324.18,48Zm19.75,173.62c3.8,9.11,7,17.89,9.72,26.28a347.14,347.14,0,0,1-35.16,6q5.86-9.28,11.55-19.15t10.95-20Q342.51,218.18,343.93,221.58Zm-27.84,5.07Q307.26,242,298,255.8c-11.2.81-22.77,1.22-34.56,1.22s-23.15-.36-34.15-1.08c-6.42-9.36-12.57-19.13-18.42-29.22h0c-5.84-10.08-11.22-20.26-16.1-30.39q7.33-15.27,16.05-30.38h0c5.81-10.09,11.94-19.84,18.28-29.13,11.26-.85,22.73-1.28,34.33-1.28s23.17.44,34.4,1.3c6.23,9.2,12.32,18.91,18.17,29s11.35,20.32,16.26,30.25C327.4,206.21,322,216.44,316.09,226.65Zm-52,73.23q-8.51-9.19-17-19.87-2.87-3.6-5.68-7.31,10.83.42,22.07.43,11.55,0,22.78-.5c-1.5,2-3,4-4.51,6Q272.88,290.22,264.1,299.88Zm-77.83-84.61q5.07,9.79,10.69,19.52h0q5.73,9.89,11.83,19.35-3.79-.42-7.52-.91-14.46-1.89-27.23-4.67,3.71-12,8.71-24.66Q184.45,219.6,186.27,215.27Zm0-37.88c-4.68-11.1-8.7-22-12-32.63q11.86-2.65,24.95-4.6,4.59-.69,9.24-1.27-5.94,9.29-11.56,19T186.25,177.39Zm77.4-84.22A347.27,347.27,0,0,1,285.84,120c-7.38-.35-14.85-.52-22.37-.52s-14.86.17-22.2.51C248.58,110.31,256.08,101.34,263.65,93.17ZM330,157.79q-5.6-9.67-11.46-18.87c12,1.51,23.53,3.53,34.38,6a346,346,0,0,1-12.07,32.48Q335.7,167.68,330,157.79ZM167.34,117.62c-3.6-18.36-4.31-35-2.06-48,1.94-11.26,6-19.21,11.52-22.39,5.84-3.38,15.35-2.89,26.79,1.38,13.29,5,28.2,14.59,43.12,27.84,1.88,1.66,3.76,3.41,5.66,5.21a386.41,386.41,0,0,0-32.13,39.75q-11.87,1.09-23.39,2.81-14.08,2.1-26.93,5Q168.45,123.32,167.34,117.62Zm-18.25,124.1c-18.17-6.22-33.38-14.29-44-23.37C96,210.58,91,202.62,91,195.94c0-6.35,4.65-13.82,13.09-21,9.84-8.42,24.2-16.06,41.53-22.1q6.22-2.16,13-4.09A385.17,385.17,0,0,0,177,196.33q-5,10.83-9.25,21.67-5.38,13.68-9.36,26.63Q153.57,243.25,149.09,241.72Zm54.4,102.8c-11.27,4-20.66,4.33-26.45,1-5.5-3.17-9.65-10.93-11.69-21.85-2.38-12.72-1.83-29,1.59-47q1.17-6.13,2.76-12.55c9.21,2,19.06,3.74,29.48,5.11,6.9.9,14,1.65,21.32,2.24q6.83,9.6,14,18.59,9.17,11.5,18.41,21.43-3.62,3.5-7.19,6.62C231.24,330.73,216.64,339.87,203.49,344.52Zm156.61-72c3.73,18.85,4.36,36.06,1.82,49.77-2.18,11.75-6.57,20.06-12.35,23.4-5.5,3.19-14.3,2.91-24.77-.77-12.21-4.3-26-12.9-39.94-24.87q-4.71-4-9.46-8.63,9.53-10.42,19.13-23,6.29-8.22,12.48-17.18,9.86-.88,19.34-2.16c11.21-1.51,21.81-3.43,31.71-5.72C358.83,266.48,359.52,269.53,360.1,272.5Zm61.18-54.07c-11,9-26.75,17.1-45.69,23.37-2.06.69-4.18,1.35-6.33,2-2.88-9.09-6.37-18.58-10.46-28.4q-4-9.52-8.63-19.35,4.15-9,7.79-17.83c4.14-10.08,7.66-19.86,10.57-29.26,3.84,1.12,7.58,2.3,11.19,3.54,17.69,6.09,32.41,13.79,42.57,22.27,8.77,7.32,13.6,14.84,13.6,21.18C435.89,202.69,430.7,210.68,421.28,218.43Z"/></g></svg>