<svg xmlns="http://www.w3.org/2000/svg" viewBox="0 0 526 396"><defs><style>.cls-1{fill:#cdeeff;}</style></defs><g id="sass"><path class="cls-1" d="M426.73,224.2a87.38,87.38,0,0,0-38.61,9c-4-7.94-8-14.88-8.65-20.06-.75-6-1.66-9.7-.75-16.89s5.08-17.39,5.08-18.22-.92-4.43-9.49-4.52-16,1.68-16.81,3.93a96.8,96.8,0,0,0-3.57,12.79c-1.5,7.86-17.14,35.69-26.05,50.32-2.91-5.68-5.4-10.7-5.9-14.71-.75-6-1.67-9.7-.75-16.88s5.07-17.39,5.07-18.23-.91-4.43-9.48-4.51-16,1.67-16.81,3.93-1.74,7.6-3.58,12.79-22.54,51.66-27.95,63.78c-2.75,6.18-5.16,11.11-6.91,14.46s-.08.25-.25.58c-1.49,2.85-2.33,4.43-2.33,4.43v.09c-1.16,2.09-2.41,4.09-3,4.09-.42,0-1.25-5.6.17-13.29,3.07-16.13,10.56-41.29,10.48-42.21,0-.42,1.41-4.85-4.83-7.11-6.07-2.25-8.23,1.51-8.73,1.51s-.92,1.34-.92,1.34,6.74-28.34-12.89-28.34C227,202.3,210,215.76,201.59,228,196.26,231,185,237.16,173,243.76c-4.57,2.51-9.31,5.18-13.81,7.61l-.91-1c-23.8-25.49-67.81-43.55-66-77.82.67-12.45,5-45.31,84.53-85.09,65.15-32.6,117.32-23.66,126.38-3.77,12.9,28.42-27.87,81.25-95.59,88.86-25.8,2.93-39.36-7.1-42.77-10.87-3.58-3.92-4.08-4.09-5.41-3.34-2.16,1.17-.83,4.68,0,6.77,2,5.27,10.32,14.63,24.46,19.31,12.4,4.1,42.69,6.35,79.29-7.86,41-16,73.06-60.27,63.65-97.3-9.56-37.7-71.8-50.07-130.62-29.09-35,12.54-73,32.1-100.26,57.77-32.45,30.42-37.61,57-35.44,68,7.57,39.37,61.57,65,83.2,84-1.08.58-2.08,1.17-3,1.67-10.81,5.35-52,27-62.31,49.9-11.65,25.91,1.83,44.56,10.81,47.06,27.79,7.78,56.25-6.18,71.64-29.17s13.48-52.83,6.4-66.45l-.25-.51,8.49-5c5.49-3.26,10.9-6.27,15.64-8.86-2.66,7.27-4.57,15.88-5.57,28.42-1.17,14.71,4.82,33.77,12.73,41.29,3.49,3.26,7.65,3.35,10.23,3.35,9.15,0,13.31-7.61,17.89-16.72C232,293.83,237,281,237,281s-6.24,34.85,10.82,34.85c6.24,0,12.48-8.1,15.3-12.28v.08s.17-.25.5-.84c.67-1,1-1.58,1-1.58V301c2.5-4.35,8.07-14.29,16.39-30.76,10.74-21.23,21-47.82,21-47.82a153.32,153.32,0,0,0,4.08,17.22C308,246,312,253,315.07,259.73c-2.49,3.51-4,5.51-4,5.51l.08.09c-2,2.67-4.24,5.51-6.57,8.36-8.49,10.19-18.64,21.81-20,25.16-1.58,3.92-1.25,6.85,1.83,9.19,2.25,1.67,6.24,2,10.48,1.67a46.6,46.6,0,0,0,15.65-3.59A53.93,53.93,0,0,0,326.05,299c8.32-6.18,13.4-15,12.9-26.66-.25-6.44-2.33-12.79-4.91-18.81.75-1.09,1.5-2.17,2.25-3.34a353.4,353.4,0,0,0,23.29-40.55,153.32,153.32,0,0,0,4.08,17.22c1.58,5.44,4.74,11.37,7.57,17.22-12.31,10.12-20.05,21.82-22.71,29.51-4.91,14.21-1.08,20.65,6.16,22.15,3.24.67,7.9-.83,11.39-2.34a51.39,51.39,0,0,0,14.4-7.44c8.32-6.18,16.31-14.79,15.89-26.41a50.62,50.62,0,0,0-3.58-15.63c10.49-4.35,24.05-6.86,41.27-4.77,37,4.35,44.35,27.59,42.93,37.28s-9.15,15.05-11.73,16.72-3.41,2.18-3.16,3.35c.33,1.75,1.5,1.67,3.74,1.33,3.08-.5,19.47-7.94,20.14-25.83,1-23-20.72-48.06-59.24-47.81ZM141.18,320.91c-12.23,13.46-29.45,18.56-36.77,14.21-7.91-4.59-4.83-24.4,10.23-38.7,9.15-8.69,21-16.72,28.87-21.65,1.75-1.08,4.41-2.67,7.57-4.6.5-.33.83-.5.83-.5.59-.33,1.25-.75,1.92-1.17,5.57,20.4.25,38.29-12.65,52.41Zm89.44-61.1c-4.24,10.45-13.23,37.28-18.63,35.78-4.66-1.26-7.49-21.57-.92-41.63,3.33-10.12,10.4-22.15,14.56-26.83,6.74-7.53,14.06-10,15.89-6.94C243.69,224.2,233.29,253.29,230.62,259.81Zm73.8,35.44c-1.83.92-3.49,1.59-4.24,1.09-.58-.34.75-1.59.75-1.59s9.23-9.95,12.89-14.54c2.08-2.68,4.58-5.77,7.24-9.28v1C321.06,284,309.58,292,304.42,295.25Zm56.91-13c-1.33-1-1.16-4.09,3.33-13.79A51.57,51.57,0,0,1,377.31,252a20.61,20.61,0,0,1,1.24,7.18C378.47,274.27,367.82,279.87,361.33,282.21Z"/></g></svg>