<svg id="Layer_1" data-name="Layer 1" xmlns="http://www.w3.org/2000/svg" viewBox="0 0 640 480"><defs><style>.cls-1{fill:#4588a5;}</style></defs><path class="cls-1" d="M504.17,159.43c-.1-35.92-14.78-64.65-44.05-85.51-17.26-12.31-36.89-18-58.07-18-54.65-.06-109.31-.6-164,.16-43.79.62-75.31,21.84-93.64,61.55-4.09,8.85-5.27,19-7.76,28.61-.32,1.26-.46,2.57-.69,3.85V329.81c1,5.51,1.52,11.14,3,16.52,11.44,41.22,38.2,66.46,79.92,75.84,3.71.84,7.52,1.23,11.28,1.83H410c5.53-1,11.17-1.52,16.55-3,41.15-11.45,66.51-38.1,75.71-79.79a97.44,97.44,0,0,0,1.87-20.7Q504.35,240,504.17,159.43Zm-49.41,2.22a109.1,109.1,0,0,1-23.63,23.9,2,2,0,0,0-1,2c1,24.49-4.11,47.77-14.19,70a155.09,155.09,0,0,1-26.53,40.41,144.61,144.61,0,0,1-40.37,31.22,146.28,146.28,0,0,1-37.78,13.44,159.43,159.43,0,0,1-21,2.91,168,168,0,0,1-19,.35,149.2,149.2,0,0,1-37.21-6.16,152.13,152.13,0,0,1-37.39-16.9,8,8,0,0,1-1.2-.86,109.94,109.94,0,0,0,41.64-3.34,107.68,107.68,0,0,0,37.47-18.93c-15.06-.61-27.62-6.15-37.85-16.77a52.43,52.43,0,0,1-12.2-20.57,55.2,55.2,0,0,0,24-.87c-16.46-3.94-28.72-13-36.65-27.76A52.78,52.78,0,0,1,205.69,208a54.5,54.5,0,0,0,24.1,6.73c-1.46-1.13-2.75-2.05-4-3.06a53.9,53.9,0,0,1-17.09-58.2,54.73,54.73,0,0,1,4.15-9.56c.48-.88.77-.67,1.25-.07A124.05,124.05,0,0,0,224,154.76a152.26,152.26,0,0,0,62.42,37.73,147.32,147.32,0,0,0,28.66,6c2.62.28,5.25.53,7.88.68,1,.05,1-.21.86-1.09-3.24-17.74.73-33.58,12.8-47.11a51,51,0,0,1,32.8-17.19c17.23-2.05,32.29,2.93,44.78,15.12a3.19,3.19,0,0,0,3.38,1,108.84,108.84,0,0,0,31-12c.3-.17.6-.32,1.17-.62a54.17,54.17,0,0,1-23,29.37c3.43.23,18.28-2.76,30.24-8.18C456.15,159.64,455.47,160.66,454.76,161.65Z"/></svg>